HIERARCHY
ROOT Hips
{
  OFFSET 39.904 70.4701 -152.205
  CHANNELS 6 Xposition Yposition Zposition Zrotation Xrotation Yrotation
  JOINT RightUpLeg
  {
    OFFSET -8.9458 -8.66707 0.101652
    CHANNELS 3 Zrotation Xrotation Yrotation
    JOINT RightLeg
    {
      OFFSET 0 -44.4227 1.3727
      CHANNELS 3 Zrotation Xrotation Yrotation
      JOINT RightFoot
      {
        OFFSET 0.253549 -42.0924 -1.46059
        CHANNELS 3 Zrotation Xrotation Yrotation
        JOINT RightToes
        {
          OFFSET 0.04 -4.41509 8.4991
          CHANNELS 3 Zrotation Xrotation Yrotation
          End Site
          {
            OFFSET -0.08 -0.137448 9.77979
          }
        }
      }
    }
  }
  JOINT Spine
  {
    OFFSET 0 11.8905 0
    CHANNELS 3 Zrotation Xrotation Yrotation
    JOINT Spine1
    {
      OFFSET 0 25.6574 0.127663
      CHANNELS 3 Zrotation Xrotation Yrotation
      JOINT HEad
      {
        OFFSET 0 8.73416 0.011341
        CHANNELS 3 Zrotation Xrotation Yrotation
        End Site
        {
          OFFSET -0.29 12.7742 2.51395
        }
      }
      JOINT LeftShoulder1
      {
        OFFSET 8.99 -0.362252 -0.22
        CHANNELS 3 Zrotation Xrotation Yrotation
        JOINT LeftArm
        {
          OFFSET 10.2827 -0.00338 0.322123
          CHANNELS 3 Zrotation Xrotation Yrotation
          JOINT LeftForeArm
          {
            OFFSET 32.7669 0.099144 -1.42434
            CHANNELS 3 Zrotation Xrotation Yrotation
            JOINT LeftHand
            {
              OFFSET 27.5643 0.085362 1.02216
              CHANNELS 3 Zrotation Xrotation Yrotation
              End Site
              {
                OFFSET 16.7443 -0.6 1.50291
              }
            }
          }
        }
      }
      JOINT RightShoulder
      {
        OFFSET -8.99 -0.362252 -0.22
        CHANNELS 3 Zrotation Xrotation Yrotation
        JOINT RightArm
        {
          OFFSET -10.2827 -0.00338 0.322123
          CHANNELS 3 Zrotation Xrotation Yrotation
          JOINT RightForeArm
          {
            OFFSET -32.8971 0.099144 -1.42434
            CHANNELS 3 Zrotation Xrotation Yrotation
            JOINT RightHand
            {
              OFFSET -27.4921 0.085362 1.02216
              CHANNELS 3 Zrotation Xrotation Yrotation
              End Site
              {
                OFFSET -16.6312 -0.6 1.50291
              }
            }
          }
        }
      }
    }
  }
  JOINT LeftUpLeg
  {
    OFFSET 8.9458 -8.66707 0.101652
    CHANNELS 3 Zrotation Xrotation Yrotation
    JOINT LeftLeg
    {
      OFFSET 0 -44.4227 1.3727
      CHANNELS 3 Zrotation Xrotation Yrotation
      JOINT LeftFoot
      {
        OFFSET -0.253549 -42.0924 -1.46059
        CHANNELS 3 Zrotation Xrotation Yrotation
        JOINT LeftToes
        {
          OFFSET -0.04 -4.41509 8.4991
          CHANNELS 3 Zrotation Xrotation Yrotation
          End Site
          {
            OFFSET 0.08 -0.047448 9.77979
          }
        }
      }
    }
  }
}
MOTION
Frames:	8
Frame Time:	0.0166667
40.1833 88.354 -124.557 3.75188 -11.9457 -21.4606 -28.1289 1.3994 21.4353 45.9618 35.3662 -89.5076 27.4487 0.373462 0.701271 0.0462048 0.000533403 0.662642 -0.995162 19.247 7.37119 -0.0208297 0.01073 0.0118605 -22.5451 9.73435 22.029 3.18055e-015 7.95139e-016 -0 -129.88 -24.995 -90.5567 -76.911 45.5537 -43.8238 29.7467 3.62456 -58.1441 8.14137 8.57814 14.2919 81.9818 13.6206 82.508 62.61 22.632 54.1827 -18.184 16.5817 38.9493 16.0488 -24.0885 15.142 -8.23085 44.253 8.8359 -5.67088 -2.27363 -0.328001 -1.88555e-008 1.55988e-007 -4.83939e-009 
39.8326 84.0446 -126.558 3.7717 -15.57 -23.6153 -33.1905 -3.11485 20.0529 60.3339 45.3573 -93.4269 32.7376 1.13758 0.578846 0.0462048 0.000533403 0.662642 0.644655 22.9428 6.40985 -0.0236196 0.01466 0.0142006 -27.1798 11.6315 26.0196 -3.97569e-016 7.95139e-016 -0 -134.941 -27.9077 -90.1701 -80.3161 46.9767 -42.8495 29.4799 -0.981524 -62.7192 5.15482 9.33042 16.2003 82.4588 15.5082 81.5842 63.0526 21.9576 53.1725 -7.42692 -5.2454 54.598 17.8139 -27.1764 14.6904 -11.7054 54.1496 14.4102 -8.6493 -1.62401 -0.456952 -1.88555e-008 1.55988e-007 -4.83939e-009 
39.6631 79.4101 -128.531 3.68738 -18.7072 -25.6223 -38.1196 -8.76026 17.433 80.1029 54.6204 -102.671 37.8217 2.13241 0.381478 0.0462048 0.000533403 0.662642 2.01957 25.9232 5.02414 -0.0243361 0.0184 0.0153679 -31.5459 13.2752 30.1077 2.18663e-015 0 6.36111e-015 -139.501 -30.8413 -90.2077 -83.5101 47.9985 -41.7815 29.214 2.80138 -60.4509 2.501 10.2458 18.2414 82.9297 17.1758 80.864 63.0117 21.5571 52.0146 -10.1242 4.29575 46.2484 19.9767 -31.5249 13.8846 -19.2195 64.3262 23.7389 -11.9057 -0.81261 -0.583389 -1.88555e-008 1.55988e-007 -4.83939e-009 
39.6788 74.0216 -130.539 3.57062 -21.4078 -27.4922 -42.7954 -14.8617 13.4729 105.091 61.1036 -119.391 42.2589 3.25842 0.114516 0.0462048 0.000533403 0.662642 3.09199 28.2297 3.40848 -0.0245275 0.0200768 0.0160677 -35.6142 14.6753 34.2365 2.98177e-015 1.98785e-015 -0 -143.47 -33.6773 -90.5293 -86.5318 48.6581 -40.6697 28.7138 -0.425251 -63.1413 0.251055 11.365 20.2071 83.2537 18.472 80.4711 63.0197 21.1185 51.187 -7.69044 1.79154 52.5094 22.4867 -36.8767 12.9608 -36.3896 73.6197 42.4053 -15.565 0.205687 -0.676591 -1.88555e-008 1.55988e-007 -4.83939e-009 
39.8117 68.4152 -132.409 3.50426 -23.7009 -29.2255 -47.1899 -20.8552 8.1502 133.935 63.1723 -142.016 46.0107 4.40834 -0.215401 0.0462048 0.000533403 0.662642 3.80561 30.2415 2.03974 -0.0242689 0.0209125 0.0164723 -39.2361 15.7582 37.8761 5.86415e-015 -2.98177e-015 -6.36111e-015 -146.824 -35.8316 -90.949 -89.2263 49.0808 -39.5036 28.3434 1.84214 -62.1096 -1.61744 12.2159 21.8703 83.5602 19.4419 80.2764 63.0781 20.5762 50.3921 -9.11415 7.54147 47.577 25.3868 -41.9128 12.5691 -72.2569 78.934 78.9988 -19.5462 1.30904 -0.715038 -1.88555e-008 1.55988e-007 -4.83939e-009 
40.3456 67.6752 -134.473 3.52048 -25.6578 -30.8165 -49.075 -24.2748 -4.80568 164.73 68.986 -175.976 47.2102 11.2501 -1.81226 0.0462048 0.000533403 0.662642 4.20718 31.9986 0.941614 -0.0236354 0.0210246 0.0167538 -42.4227 16.6202 41.0308 2.23633e-015 -2.98177e-015 3.18055e-015 -149.541 -37.2949 -91.3575 -91.5247 49.2631 -38.3927 28.1297 -0.257641 -63.7927 -2.94429 12.8897 23.1864 83.6731 20.0748 80.2429 63.365 19.872 49.7568 -6.96082 6.31312 51.1103 22.9975 -41.9527 10.9524 -72.5335 80.3709 82.1169 -22.987 4.2698 0.115708 -1.88555e-008 1.55988e-007 -4.83939e-009 
40.893 67.1059 -136.339 3.6281 -27.3227 -32.2647 -50.0792 -27.0181 -17.8796 -159.106 67.3186 143.257 48.5479 17.7547 -3.54313 0.0462048 0.000533403 0.662642 4.34743 33.5148 0.132436 -0.022702 0.02053 0.0170843 -45.1863 17.3421 43.7176 3.72721e-017 9.93923e-017 6.36111e-015 -151.694 -38.2576 -91.7874 -93.3602 49.0882 -37.5986 27.6386 1.0674 -63.477 -3.90884 13.3665 24.1973 83.7421 20.3951 80.3412 63.9405 19.0551 49.3321 -7.58299 10.0909 48.1133 20.7088 -41.6113 10.1283 -67.8492 82.1287 79.9427 -26.2611 6.40657 0.870892 -1.88555e-008 1.55988e-007 -4.83939e-009 
41.3999 66.6367 -138.075 3.80524 -28.7636 -33.5631 -49.8436 -29.0143 -30.4013 -134.921 59.5071 113.296 50.414 23.954 -5.58321 0.0462048 0.000533403 0.662642 4.30895 34.8278 -0.406285 -0.0215432 0.01848 0.0173324 -47.5603 18.0018 45.9597 -1.49089e-016 -9.93923e-017 9.54166e-015 -153.417 -38.7398 -92.1826 -94.9494 48.6853 -36.7426 27.3068 0.0544732 -64.666 -4.2655 13.7622 24.904 83.5827 20.5027 80.4527 64.7451 18.1916 48.893 -5.93089 9.61823 49.6015 18.5985 -40.7913 10.0192 -53.7625 83.6531 67.9931 -29.1774 7.86386 1.44854 -1.88555e-008 1.55988e-007 -4.83939e-009 
